<svg width="45" height="51" viewBox="0 0 45 51" fill="none" xmlns="http://www.w3.org/2000/svg">
<path d="M41.6065 18.4703H40.42V12.746C40.419 12.7097 40.4155 12.6734 40.4095 12.6375C40.4111 12.4076 40.329 12.1849 40.1785 12.011L30.655 1.13127L30.648 1.12427C30.5909 1.06266 30.5262 1.00855 30.4555 0.963267L30.3925 0.924766C30.332 0.891128 30.2681 0.864137 30.2017 0.844266L30.1493 0.826767C30.0765 0.808638 30.0019 0.799239 29.927 0.798767H6.51725C5.448 0.798767 4.58 1.66852 4.58 2.73602V18.4685H3.3935C1.864 18.4685 0.625 19.7075 0.625 21.237V35.636C0.625 37.1638 1.86575 38.4045 3.3935 38.4045H4.58V48.2605C4.58 49.328 5.448 50.1978 6.51725 50.1978H38.4827C39.5503 50.1978 40.42 49.328 40.42 48.2605V38.4045H41.6065C43.1343 38.4045 44.375 37.1655 44.375 35.636V21.237C44.375 19.7093 43.136 18.4703 41.6065 18.4703ZM6.51725 2.73602H28.9575V12.648C28.9575 13.1835 29.3915 13.6158 29.927 13.6158H38.4845V18.4685H6.51725V2.73602ZM21.0108 29.28C18.6588 28.44 17.1065 27.138 17.1065 25.0818C17.1065 22.6685 19.1435 20.8433 22.4598 20.8433C24.0767 20.8433 25.23 21.1583 26.07 21.5555L25.356 24.1158C24.4409 23.6701 23.4356 23.4408 22.4177 23.4455C21.0317 23.4455 20.3598 24.0948 20.3598 24.8088C20.3598 25.7118 21.135 26.109 22.983 26.802C25.482 27.726 26.6353 29.0263 26.6353 31.0213C26.6353 33.3943 24.831 35.4085 20.9478 35.4085C19.3308 35.4085 17.7365 34.9675 16.9385 34.5265L17.5895 31.9033C18.6884 32.4644 19.9013 32.7661 21.135 32.7853C22.605 32.7853 23.382 32.1745 23.382 31.2523C23.382 30.3703 22.7118 29.868 21.0108 29.28ZM4.34025 28.314C4.34025 23.5068 7.7825 20.8415 12.063 20.8415C13.722 20.8415 14.9803 21.1758 15.5473 21.4505L14.8753 23.9898C14.0252 23.6328 13.1109 23.4541 12.189 23.4648C9.67075 23.4648 7.6985 24.996 7.6985 28.1443C7.6985 30.9565 9.37675 32.7415 12.21 32.7415C13.197 32.7415 14.247 32.5543 14.8963 32.2795L15.36 34.7978C14.793 35.069 13.449 35.4068 11.7498 35.4068C6.8585 35.4085 4.34025 32.3443 4.34025 28.314ZM38.4827 47.739H6.51725V38.4063H38.4827V47.739ZM35.8963 35.1985H32.16L27.6275 21.0515H31.1328L32.853 27.0348C33.3343 28.734 33.7753 30.33 34.1113 32.0923H34.1743C34.5321 30.4106 34.9589 28.7444 35.4535 27.0978L37.2595 21.0533H40.658L35.8963 35.1985Z" fill="#05B55B"/>
</svg>
