<svg width="11" height="10" viewBox="0 0 11 10" fill="none" xmlns="http://www.w3.org/2000/svg">
<path d="M0.916992 5.00065C0.916992 5.60254 1.03554 6.19854 1.26588 6.75462C1.49621 7.31069 1.83382 7.81596 2.25942 8.24156C3.11896 9.1011 4.28475 9.58398 5.50033 9.58398C6.7159 9.58398 7.88169 9.1011 8.74123 8.24156C9.16683 7.81596 9.50444 7.31069 9.73478 6.75462C9.96511 6.19854 10.0837 5.60254 10.0837 5.00065C10.0837 3.78507 9.60077 2.61929 8.74123 1.75974C7.88169 0.900202 6.7159 0.417316 5.50033 0.417316C4.89843 0.417316 4.30244 0.535868 3.74636 0.766201C3.19028 0.996535 2.68502 1.33414 2.25942 1.75974C1.83382 2.18535 1.49621 2.69061 1.26588 3.24668C1.03554 3.80276 0.916992 4.39876 0.916992 5.00065Z" fill="#3D55AE"/>
</svg>
