<svg width="11" height="10" viewBox="0 0 11 10" fill="none" xmlns="http://www.w3.org/2000/svg">
<path d="M9.16699 5.00065C9.16699 5.97311 8.78068 6.90574 8.09305 7.59338C7.40542 8.28101 6.47279 8.66732 5.50033 8.66732C4.52787 8.66732 3.59523 8.28101 2.9076 7.59338C2.21997 6.90574 1.83366 5.97311 1.83366 5.00065C1.83366 4.02819 2.21997 3.09556 2.9076 2.40793C3.59523 1.72029 4.52787 1.33398 5.50033 1.33398C6.47279 1.33398 7.40542 1.72029 8.09305 2.40793C8.78068 3.09556 9.16699 4.02819 9.16699 5.00065ZM0.916992 5.00065C0.916992 5.60254 1.03554 6.19854 1.26588 6.75462C1.49621 7.31069 1.83382 7.81596 2.25942 8.24156C3.11896 9.1011 4.28475 9.58398 5.50033 9.58398C6.7159 9.58398 7.88169 9.1011 8.74123 8.24156C9.16683 7.81596 9.50444 7.31069 9.73477 6.75462C9.96511 6.19854 10.0837 5.60254 10.0837 5.00065C10.0837 3.78508 9.60077 2.61929 8.74123 1.75974C7.88169 0.900203 6.7159 0.417317 5.50033 0.417317C4.89843 0.417317 4.30244 0.535869 3.74636 0.766203C3.19028 0.996536 2.68502 1.33414 2.25942 1.75974C1.83382 2.18535 1.49621 2.69061 1.26588 3.24669C1.03554 3.80276 0.916992 4.39876 0.916992 5.00065Z" fill="#7C7C7C"/>
</svg>
