<svg width="31" height="29" viewBox="0 0 31 29" fill="none" xmlns="http://www.w3.org/2000/svg">
<path d="M3.16665 0.125H24.75C25.5677 0.125 26.352 0.44985 26.9302 1.02809C27.5085 1.60632 27.8333 2.39058 27.8333 3.20833V14.1233C25.5138 13.7336 23.1328 14.2407 21.1733 15.5417H15.5V21.7083H17.165C16.9954 22.7567 16.9954 23.7896 17.165 24.7917H3.16665C2.3489 24.7917 1.56464 24.4668 0.9864 23.8886C0.408163 23.3103 0.083313 22.5261 0.083313 21.7083V3.20833C0.083313 1.5125 1.47081 0.125 3.16665 0.125ZM3.16665 6.29167V12.4583H12.4166V6.29167H3.16665ZM15.5 6.29167V12.4583H24.75V6.29167H15.5ZM3.16665 15.5417V21.7083H12.4166V15.5417H3.16665ZM30.8241 22.4792H27.7408V28.6458H24.6575V22.4792H21.5741L26.1991 17.8542L30.8241 22.4792Z" fill="#3D55AE"/>
</svg>
