<svg width="11" height="11" viewBox="0 0 11 11" fill="none" xmlns="http://www.w3.org/2000/svg">
<path d="M4.34413 6.40754L3.24757 5.31098C3.15514 5.21855 3.0417 5.17233 2.90726 5.17233C2.77281 5.17233 2.65518 5.22275 2.55434 5.32358C2.46191 5.41601 2.4157 5.53365 2.4157 5.6765C2.4157 5.81935 2.46191 5.93699 2.55434 6.02942L3.99122 7.46629C4.08365 7.55872 4.20129 7.60494 4.34413 7.60494C4.48698 7.60494 4.60462 7.55872 4.69705 7.46629L7.5582 4.60515C7.65063 4.51271 7.69684 4.39928 7.69684 4.26483C7.69684 4.13039 7.64643 4.01275 7.54559 3.91192C7.45316 3.81949 7.33552 3.77327 7.19268 3.77327C7.04983 3.77327 6.93219 3.81949 6.83976 3.91192L4.34413 6.40754ZM5.04997 10.5417C4.35254 10.5417 3.69712 10.4093 3.08372 10.1444C2.47032 9.87957 1.93674 9.52044 1.48299 9.06702C1.02924 8.61327 0.670104 8.07969 0.405584 7.46629C0.141065 6.85289 0.00863689 6.19747 0.00830078 5.50004C0.00830078 4.80261 0.140729 4.14719 0.405584 3.53379C0.67044 2.92039 1.02957 2.38681 1.48299 1.93306C1.93674 1.47931 2.47032 1.12018 3.08372 0.855657C3.69712 0.591138 4.35254 0.45871 5.04997 0.458374C5.7474 0.458374 6.40282 0.590802 7.01622 0.855657C7.62962 1.12051 8.1632 1.47965 8.61695 1.93306C9.0707 2.38681 9.43 2.92039 9.69486 3.53379C9.95971 4.14719 10.092 4.80261 10.0916 5.50004C10.0916 6.19747 9.95921 6.85289 9.69435 7.46629C9.4295 8.07969 9.07036 8.61327 8.61695 9.06702C8.1632 9.52077 7.62962 9.88007 7.01622 10.1449C6.40282 10.4098 5.7474 10.542 5.04997 10.5417Z" fill="#7C7C7C"/>
</svg>
