<svg width="20" height="20" viewBox="0 0 20 20" fill="none" xmlns="http://www.w3.org/2000/svg">
<path d="M10.002 13.4999C8.018 13.4999 6.404 11.9299 6.404 9.99994C6.404 8.06994 8.018 6.49994 10.002 6.49994C11.986 6.49994 13.6 8.06994 13.6 9.99994C13.6 11.9299 11.986 13.4999 10.002 13.4999ZM17.641 10.9699C17.681 10.6499 17.713 10.3299 17.713 9.99994C17.713 9.66994 17.682 9.33994 17.641 8.99994L19.81 7.36994C19.9045 7.29623 19.9691 7.19074 19.9917 7.07304C20.0143 6.95534 19.9935 6.83343 19.933 6.72994L17.877 3.26994C17.8157 3.16469 17.7189 3.08473 17.604 3.04441C17.4891 3.00409 17.3636 3.00605 17.25 3.04994L14.69 4.04994C14.156 3.65994 13.6 3.31994 12.953 3.06994L12.573 0.41994C12.5504 0.300479 12.4863 0.192837 12.3921 0.115998C12.2979 0.0391577 12.1796 -0.00194434 12.058 -6.00455e-05H7.946C7.8246 -0.00170701 7.70651 0.0395033 7.6125 0.116323C7.51849 0.193142 7.45457 0.300651 7.432 0.41994L7.052 3.06994C6.404 3.31994 5.849 3.65994 5.314 4.04994L2.754 3.04994C2.6404 3.00605 2.51488 3.00409 2.39996 3.04441C2.28505 3.08473 2.18827 3.16469 2.127 3.26994L0.070998 6.72994C0.00823118 6.83289 -0.0138457 6.95557 0.00908987 7.07395C0.0320255 7.19232 0.0983218 7.29788 0.194998 7.36994L2.364 8.99994C2.31992 9.33152 2.29587 9.66546 2.292 9.99994C2.292 10.3299 2.322 10.6499 2.364 10.9699L0.193998 12.6299C0.097485 12.7021 0.0313875 12.8078 0.00863858 12.9261C-0.0141103 13.0445 0.00812645 13.1671 0.070998 13.2699L2.127 16.7299C2.251 16.9499 2.528 17.0299 2.755 16.9499L5.315 15.9399C5.849 16.3399 6.405 16.6799 7.052 16.9299L7.432 19.5799C7.473 19.8199 7.689 19.9999 7.946 19.9999H12.058C12.315 19.9999 12.531 19.8199 12.572 19.5799L12.952 16.9299C13.5727 16.6786 14.1572 16.3457 14.69 15.9399L17.25 16.9499C17.476 17.0299 17.754 16.9499 17.877 16.7299L19.933 13.2699C19.9935 13.1665 20.0143 13.0445 19.9917 12.9268C19.9691 12.8091 19.9045 12.7036 19.81 12.6299L17.64 10.9699H17.641Z" fill="white"/>
</svg>
