<svg width="60" height="60" viewBox="0 0 60 60" fill="none" xmlns="http://www.w3.org/2000/svg">
<path d="M0 0H30C46.5685 0 60 13.4315 60 30C60 46.5685 46.5685 60 30 60H0V0Z" fill="white"/>
<g clip-path="url(#clip0_301_118)">
<mask id="mask0_301_118" style="mask-type:luminance" maskUnits="userSpaceOnUse" x="18" y="15" width="25" height="31">
<path d="M43 15H18V45.8594H43V15Z" fill="white"/>
</mask>
<g mask="url(#mask0_301_118)">
<path d="M38.9023 15.1058C38.4253 15.2363 37.8732 15.5169 33.8446 17.6573C24.7523 22.4929 19.8766 25.1163 19.4939 25.3838C18.8036 25.8667 18.3142 26.6042 18.0946 27.4982C17.9628 28.0333 17.9753 29.0383 18.1134 29.4624C18.3769 30.2456 19.0483 31.1069 19.7009 31.4919C20.3347 31.8704 38.3438 39.871 38.7705 39.9689C39.3917 40.106 39.9313 40.0864 40.5651 39.8906C41.2303 39.6948 41.5816 39.4729 42.046 38.964C42.6171 38.3375 42.8367 37.835 42.9747 36.8105C43.0437 36.2818 42.9747 35.7728 42.7237 35.068C42.5292 34.5199 41.9456 33.9326 41.1863 33.528C40.8789 33.3583 38.0676 32.0858 34.9427 30.6958C31.8178 29.3059 29.2389 28.1443 29.2138 28.1181C29.1824 28.092 30.1424 27.5374 31.3472 26.8913C33.5435 25.7101 39.0842 22.7474 40.7721 21.8469C42.4601 20.9529 42.9119 20.2481 42.9119 18.4926C42.9119 17.5203 42.686 16.8547 42.1024 16.1303C41.5189 15.3929 40.7032 15.0014 39.787 15.0079C39.4858 15.0079 39.0842 15.0536 38.9023 15.1058Z" fill="#3D55AE"/>
<path d="M18.9354 33.8224C18.4209 34.1095 18.0695 34.6707 18.0193 35.2972C17.9691 35.8193 18.082 36.0934 18.4962 36.5241C18.879 36.9287 18.5025 36.7459 23.1773 38.8407C23.9742 39.1931 24.6268 39.4933 24.6393 39.5063C24.6519 39.5129 23.7859 39.9892 22.7255 40.5504C18.6091 42.7365 18.4711 42.828 18.1636 43.4674C17.875 44.0678 17.9754 44.5312 18.5338 45.1968C19.0295 45.7841 19.6319 45.9603 20.2594 45.6993C20.7238 45.5035 28.7369 41.1769 29.0946 40.9224C29.4773 40.6614 29.8099 40.2633 29.9542 39.911C30.0672 39.6304 30.0734 38.9908 29.9667 38.7493C29.7534 38.2664 29.22 37.8487 28.2223 37.3789C27.0678 36.8372 21.3513 34.2596 20.6673 33.9724C19.8516 33.6331 19.3558 33.5874 18.9354 33.8224Z" fill="#FD9802"/>
</g>
</g>
<defs>
<clipPath id="clip0_301_118">
<rect width="25" height="30.8594" fill="white" transform="translate(18 15)"/>
</clipPath>
</defs>
</svg>
